<?xml version="1.0" encoding="utf-8"?>
<!-- Generator: Adobe Illustrator 16.0.4, SVG Export Plug-In . SVG Version: 6.00 Build 0)  -->
<!DOCTYPE svg PUBLIC "-//W3C//DTD SVG 1.1//EN" "http://www.w3.org/Graphics/SVG/1.1/DTD/svg11.dtd">
<svg version="1.1" id="Layer_1" xmlns="http://www.w3.org/2000/svg" xmlns:xlink="http://www.w3.org/1999/xlink" x="0px" y="0px"
	 width="144px" height="144px" viewBox="728 728 144 144" enable-background="new 728 728 144 144" xml:space="preserve">
<path fill="#39923B" d="M800,728c-39.701,0-72,32.345-72,72.103c0,36.171,26.737,66.196,61.456,71.323
	c1.774,0.261,3.572,0.445,5.386,0.574c1.181-0.828,2.326-1.806,3.414-2.952c0.599-0.632,1.185-1.304,1.743-2.042
	c0.56,0.739,1.144,1.411,1.743,2.042c1.088,1.146,2.232,2.124,3.414,2.952c1.814-0.129,3.611-0.313,5.385-0.574
	C845.262,866.301,872,836.273,872,800.103C872,760.345,839.701,728,800,728z M799.999,861.037
	c-25.093-50.422-16.492-76.237-7.43-83.549c2.327-1.877,4.878-2.815,7.431-2.815c2.553,0,5.104,0.938,7.432,2.815
	C816.492,784.8,825.094,810.617,799.999,861.037z M806.113,868.807c-1.535-1.203-2.99-2.701-4.279-4.588
	c0.268-0.469,0.527-0.953,0.779-1.457c10.891-21.799,16.762-41.934,16.982-58.225c0.18-13.346-3.543-24.089-10.215-29.472
	c-1.861-1.502-3.867-2.514-5.926-3.049l2.26-15.59l-2.051-0.298l-2.248,15.517c-0.184-0.019-0.367-0.031-0.549-0.043v-15.281h-2.073
	v15.297c-0.186,0.016-0.371,0.049-0.557,0.074l-2.229-15.52l-2.052,0.296l2.246,15.641c-1.937,0.556-3.825,1.537-5.583,2.956
	c-6.672,5.383-10.395,16.125-10.216,29.473c0.219,16.291,6.091,36.425,16.981,58.224c0.252,0.504,0.512,0.989,0.78,1.457
	c-1.29,1.887-2.745,3.385-4.279,4.588c-35.132-3.111-62.778-32.728-62.778-68.704c0-38.041,30.905-68.99,68.892-68.99
	c37.986,0,68.893,30.949,68.893,68.99C868.893,836.079,841.246,865.696,806.113,868.807z"/>
</svg>
