<?xml version="1.0" encoding="utf-8"?>
<!-- Generator: Adobe Illustrator 16.0.2, SVG Export Plug-In . SVG Version: 6.00 Build 0)  -->
<!DOCTYPE svg PUBLIC "-//W3C//DTD SVG 1.1//EN" "http://www.w3.org/Graphics/SVG/1.1/DTD/svg11.dtd">
<svg version="1.1" id="Layer_1" xmlns="http://www.w3.org/2000/svg" xmlns:xlink="http://www.w3.org/1999/xlink" x="0px" y="0px"
	 width="42px" height="42px" viewBox="0 0 42 42" enable-background="new 0 0 42 42" xml:space="preserve">
<g>
	<path fill="#EC8D1C" d="M20.968,0C9.388,0,0,9.388,0,20.968s9.388,20.968,20.968,20.968s20.968-9.388,20.968-20.968
		S32.549,0,20.968,0z M20.968,40.03c-10.51,0-19.062-8.552-19.062-19.062S10.458,1.906,20.968,1.906S40.03,10.458,40.03,20.968
		S31.479,40.03,20.968,40.03z"/>
	<rect x="13" y="11" fill="#EC8D1C" width="6" height="4"/>
	<rect x="13" y="19" fill="#EC8D1C" width="6" height="4"/>
	<rect x="13" y="27" fill="#EC8D1C" width="6" height="4"/>
	<rect x="23" y="11" fill="#EC8D1C" width="6" height="4"/>
	<rect x="23" y="19" fill="#EC8D1C" width="6" height="4"/>
	<rect x="23" y="27" fill="#EC8D1C" width="6" height="4"/>
</g>
</svg>
