<?xml version="1.0" encoding="utf-8"?>
<!-- Generator: Adobe Illustrator 16.0.4, SVG Export Plug-In . SVG Version: 6.00 Build 0)  -->
<!DOCTYPE svg PUBLIC "-//W3C//DTD SVG 1.1//EN" "http://www.w3.org/Graphics/SVG/1.1/DTD/svg11.dtd">
<svg version="1.1" id="Layer_1" xmlns="http://www.w3.org/2000/svg" xmlns:xlink="http://www.w3.org/1999/xlink" x="0px" y="0px"
	 width="28px" height="28px" viewBox="0 0 28 28" enable-background="new 0 0 28 28" xml:space="preserve">
<path fill-rule="evenodd" clip-rule="evenodd" fill="#FFFFFF" d="M7.31,5h13.38C21.961,5,23,6.04,23,7.31v13.38
	c0,1.271-1.039,2.311-2.31,2.311H7.31C6.04,23.001,5,21.961,5,20.69V7.31C5,6.04,6.04,5,7.31,5L7.31,5z M18.112,7
	c-0.446,0-0.81,0.364-0.81,0.81v1.94c0,0.445,0.363,0.81,0.81,0.81h2.035c0.445,0,0.81-0.365,0.81-0.81V7.81
	c0-0.446-0.364-0.81-0.81-0.81H18.112L18.112,7z M20.966,12.612h-1.584c0.149,0.49,0.229,1.009,0.229,1.545
	c0,2.993-2.504,5.42-5.595,5.42c-3.09,0-5.594-2.428-5.594-5.42c0-0.536,0.08-1.055,0.23-1.545H7v7.604
	c0,0.393,0.322,0.716,0.716,0.716H20.25c0.395,0,0.716-0.323,0.716-0.716V12.612L20.966,12.612z M14.017,10.458
	c-1.996,0-3.615,1.568-3.615,3.503c0,1.934,1.619,3.502,3.615,3.502c1.997,0,3.615-1.568,3.615-3.502
	C17.632,12.026,16.014,10.458,14.017,10.458z"/>
</svg>
