<?xml version="1.0" encoding="utf-8"?>
<!-- Generator: Adobe Illustrator 16.0.4, SVG Export Plug-In . SVG Version: 6.00 Build 0)  -->
<!DOCTYPE svg PUBLIC "-//W3C//DTD SVG 1.1//EN" "http://www.w3.org/Graphics/SVG/1.1/DTD/svg11.dtd">
<svg version="1.1" id="Layer_1" xmlns="http://www.w3.org/2000/svg" xmlns:xlink="http://www.w3.org/1999/xlink" x="0px" y="0px"
	 width="28px" height="28px" viewBox="0 0 28 28" enable-background="new 0 0 28 28" xml:space="preserve">
<g>
	<path fill="#FFFFFF" d="M5.7,11.144h3.578v11.525H5.7V11.144z M7.488,5.415c1.145,0,2.073,0.931,2.073,2.077
		c0,1.147-0.928,2.078-2.073,2.078c-1.148,0-2.074-0.931-2.074-2.078C5.415,6.346,6.34,5.415,7.488,5.415"/>
	<path fill="#FFFFFF" d="M11.52,11.144h3.428v1.576h0.048c0.479-0.906,1.644-1.862,3.385-1.862c3.62,0,4.288,2.387,4.288,5.491
		v6.321h-3.574v-5.604c0-1.336-0.023-3.057-1.859-3.057c-1.86,0-2.144,1.458-2.144,2.96v5.701H11.52V11.144z"/>
</g>
</svg>
