<?xml version="1.0" encoding="utf-8"?>
<!-- Generator: Adobe Illustrator 16.0.2, SVG Export Plug-In . SVG Version: 6.00 Build 0)  -->
<!DOCTYPE svg PUBLIC "-//W3C//DTD SVG 1.1//EN" "http://www.w3.org/Graphics/SVG/1.1/DTD/svg11.dtd">
<svg version="1.1" id="Layer_1" xmlns="http://www.w3.org/2000/svg" xmlns:xlink="http://www.w3.org/1999/xlink" x="0px" y="0px"
	 width="144px" height="144px" viewBox="0 0 144 144" enable-background="new 0 0 144 144" xml:space="preserve">
<path fill="#64328A" d="M54.363,90.318c0.566-0.854,1.556-2.848,1.979-3.562c0.707-1.139,2.262-1.423,3.817-0.426
	c0,0,6.08,4.981,13.291,4.981c5.797,0,9.188-2.989,9.188-6.834c0-4.982-4.24-7.262-12.442-11.392
	c-7.493-3.702-16.118-8.686-16.118-18.368c0-5.979,4.807-14.809,17.957-14.809c7.353,0,13.008,2.563,15.694,4.415
	c1.271,0.854,1.695,2.848,0.848,4.414l-1.131,2.278c-0.85,1.566-2.828,1.994-4.102,1.282c0,0-6.078-3.417-11.311-3.417
	c-6.363,0-8.059,3.275-8.059,5.695c0,4.699,4.666,6.834,10.461,9.683c9.756,4.699,18.522,9.113,18.522,19.365
	c0,8.259-7.918,16.09-19.512,16.09c-9.473,0-15.27-3.986-18.381-6.406C54.363,92.738,53.939,91.314,54.363,90.318z M73.5,143
	C34.626,143,3,111.15,3,72C3,32.85,34.626,1,73.5,1S144,32.85,144,72C144,111.15,112.374,143,73.5,143z M73.5,2.007
	C35.178,2.007,4,33.406,4,72s31.178,69.993,69.5,69.993c38.322,0,69.5-31.399,69.5-69.993S111.822,2.007,73.5,2.007z"/>
</svg>
