<?xml version="1.0" encoding="utf-8"?>
<!-- Generator: Adobe Illustrator 16.0.4, SVG Export Plug-In . SVG Version: 6.00 Build 0)  -->
<!DOCTYPE svg PUBLIC "-//W3C//DTD SVG 1.1//EN" "http://www.w3.org/Graphics/SVG/1.1/DTD/svg11.dtd">
<svg version="1.1" id="Layer_1" xmlns="http://www.w3.org/2000/svg" xmlns:xlink="http://www.w3.org/1999/xlink" x="0px" y="0px"
	 width="450px" height="57.093px" viewBox="0 33 450 57.093" enable-background="new 0 33 450 57.093" xml:space="preserve">
<g>
	<path d="M3.808,66.887c0.486-0.703,0.918-1.514,1.404-2.215c0.486-0.701,1.242-0.918,1.836-0.434
		c0.324,0.271,4.482,3.729,8.641,3.729c3.726,0,6.102-2.27,6.102-5.023c0-3.238-2.808-5.291-8.154-7.505
		c-5.508-2.322-9.828-5.184-9.828-11.448c0-4.212,3.24-9.99,11.826-9.99c5.4,0,9.45,2.808,9.99,3.186
		c0.432,0.27,0.864,1.026,0.324,1.836c-0.432,0.648-0.918,1.404-1.35,2.052c-0.432,0.702-1.134,1.026-1.89,0.54
		c-0.378-0.216-4.158-2.7-7.29-2.7c-4.536,0-6.103,2.862-6.103,4.86c0,3.078,2.376,4.968,6.858,6.804
		c6.264,2.538,11.61,5.509,11.61,12.098c0,5.615-5.022,10.205-12.042,10.205c-6.588,0-10.746-3.455-11.61-4.266
		C3.646,68.182,3.268,67.805,3.808,66.887z"/>
	<path d="M42.795,50.2c6.048,0,10.908,5.185,10.908,11.287c0,6.209-4.86,11.395-10.908,11.395s-10.908-5.186-10.908-11.395
		C31.887,55.384,36.747,50.2,42.795,50.2z M42.795,68.236c3.402,0,6.102-3.023,6.102-6.75c0-3.619-2.7-6.588-6.102-6.588
		s-6.102,2.969-6.102,6.588C36.693,65.213,39.393,68.236,42.795,68.236z"/>
	<path d="M59.104,51.766c0-0.54,0.486-1.026,1.026-1.026h1.512c0.486,0,0.756,0.271,0.918,0.648l0.594,1.836
		c0.486-0.486,2.97-3.024,7.128-3.024c3.132,0,5.4,1.242,6.966,3.456c0.594-0.594,3.726-3.456,7.83-3.456
		c6.588,0,8.91,4.645,8.91,10.261v10.854c0,0.541-0.432,1.027-1.026,1.027h-3.024c-0.594,0-1.026-0.486-1.026-1.027v-11.07
		c0-3.401-1.566-5.345-4.482-5.345c-3.294,0-5.184,2.321-5.562,2.646c0.108,0.484,0.162,1.512,0.162,2.592v11.178
		c0,0.541-0.486,1.027-1.026,1.027h-2.862c-0.594,0-1.026-0.486-1.026-1.027v-11.07c0-3.455-1.566-5.345-4.59-5.345
		c-3.24,0-5.076,2.538-5.346,3.24v13.176c0,0.541-0.486,1.027-1.026,1.027H60.13c-0.54,0-1.026-0.486-1.026-1.027V51.766z"/>
	<path d="M109.971,50.2c5.616,0,9.936,4.212,9.936,9.99c0,0.379-0.054,1.08-0.108,1.459c-0.054,0.539-0.486,0.918-0.972,0.918
		h-14.688c0.162,2.916,2.7,5.777,6.21,5.777c1.944,0,3.726-0.863,4.806-1.566c0.648-0.377,1.026-0.594,1.458-0.053l1.512,2.051
		c0.378,0.434,0.54,0.865-0.108,1.404c-1.566,1.352-4.374,2.701-7.992,2.701c-6.534,0-10.854-5.131-10.854-11.342
		C99.171,55.438,103.491,50.2,109.971,50.2z M114.885,59.164c-0.162-2.592-2.322-4.806-4.968-4.806
		c-2.917,0-5.184,2.106-5.508,4.806H114.885z"/>
	<path d="M126.495,55.222h-2.268c-0.594,0-1.026-0.486-1.026-1.026v-2.43c0-0.594,0.432-1.026,1.026-1.026h2.268v-5.994
		c0-0.54,0.486-1.026,1.026-1.026l3.078-0.054c0.54,0,0.972,0.486,0.972,1.026v6.048h5.508c0.594,0,1.026,0.433,1.026,1.026v2.43
		c0,0.54-0.432,1.026-1.026,1.026h-5.508v10.692c0,1.836,0.702,2.16,1.728,2.16c1.134,0,2.646-0.648,3.294-0.973
		c0.702-0.324,1.026,0,1.242,0.486l0.972,2.375c0.27,0.594,0.054,1.025-0.486,1.297c-0.54,0.324-3.726,1.619-6.318,1.619
		c-4.266,0-5.508-2.592-5.508-6.426V55.222L126.495,55.222z"/>
	<path d="M143.774,35.566c0-0.54,0.486-1.026,1.026-1.026h3.132c0.54,0,1.026,0.486,1.026,1.026v16.956
		c0.54-0.378,3.024-2.322,6.48-2.322c6.102,0,9.018,4.374,9.018,10.261v10.854c0,0.541-0.486,1.027-1.026,1.027h-3.024
		c-0.594,0-1.026-0.486-1.026-1.027V60.352c0-3.51-1.782-5.454-4.59-5.454c-3.294,0-5.562,2.484-5.832,3.403v13.014
		c0,0.594-0.378,1.025-1.08,1.025H144.8c-0.54,0-1.026-0.486-1.026-1.025V35.566z"/>
	<path d="M170.612,38.806c0-1.782,1.35-3.186,3.078-3.186c1.782,0,3.186,1.404,3.186,3.186c0,1.728-1.404,3.132-3.186,3.132
		C171.962,41.938,170.612,40.534,170.612,38.806z M171.206,51.766c0-0.54,0.486-1.026,1.026-1.026h3.078
		c0.54,0,1.026,0.486,1.026,1.026v19.549c0,0.539-0.486,1.025-1.026,1.025h-3.078c-0.54,0-1.026-0.486-1.026-1.025V51.766z"/>
	<path d="M183.355,51.766c0-0.54,0.486-1.026,1.026-1.026h1.566c0.432,0,0.756,0.271,0.864,0.648l0.648,1.836
		c0.378-0.432,3.24-3.024,7.56-3.024c6.588,0,9.018,4.645,9.018,10.261v10.854c0,0.541-0.486,1.027-1.026,1.027h-3.078
		c-0.594,0-1.026-0.486-1.026-1.027v-11.07c0-3.455-1.674-5.345-4.482-5.345c-3.402,0-5.724,2.483-5.994,3.24v13.176
		c0,0.703-0.324,1.027-1.242,1.027h-2.808c-0.54,0-1.026-0.486-1.026-1.027V51.766L183.355,51.766z"/>
	<path d="M212.461,64.889c0,0-1.674-1.998-1.674-5.238c0-5.021,3.78-9.451,9.288-9.451h9.45c0.595,0,1.025,0.433,1.025,1.026v1.35
		c0,0.378-0.216,0.864-0.594,0.918l-2.971,0.811c0,0,2.322,1.728,2.322,5.779c0,4.59-3.563,8.801-9.181,8.801
		c-2.754,0-4.267-0.863-4.698-0.863c-0.378,0-2.214,0.918-2.214,2.646c0,1.24,0.972,2.213,2.592,2.213h7.344
		c4.698,0,8.479,2.539,8.479,7.236c0,4.752-4.32,8.963-11.502,8.963c-7.614,0-10.692-3.887-10.692-7.396
		c0-3.24,2.646-4.752,3.186-5.076v-0.162c-1.134-0.324-3.996-1.781-3.996-5.398C208.627,66.887,212.461,64.889,212.461,64.889z
		 M220.075,84.652c3.294,0,6.155-1.674,6.155-4.266c0-0.865-0.539-3.078-4.049-3.078c-1.566,0-3.187,0-4.752,0.107
		c-0.324,0.107-2.97,0.973-2.97,3.402C214.459,83.033,216.781,84.652,220.075,84.652z M224.72,59.76
		c0-2.917-1.836-4.969-4.536-4.969c-2.754,0-4.752,2.052-4.752,4.969c0,2.916,1.998,4.967,4.752,4.967
		C222.884,64.727,224.72,62.676,224.72,59.76z"/>
	<path d="M256.794,50.2c6.049,0,10.908,5.185,10.908,11.287c0,6.209-4.859,11.395-10.908,11.395
		c-6.048,0-10.907-5.186-10.907-11.395C245.887,55.384,250.746,50.2,256.794,50.2z M256.794,68.236c3.401,0,6.103-3.023,6.103-6.75
		c0-3.619-2.699-6.588-6.103-6.588c-3.401,0-6.103,2.969-6.103,6.588C250.691,65.213,253.393,68.236,256.794,68.236z"/>
	<path d="M273.102,51.766c0-0.54,0.486-1.026,1.026-1.026h1.565c0.433,0,0.757,0.271,0.863,0.648l0.648,1.836
		c0.378-0.432,3.24-3.024,7.561-3.024c6.588,0,9.019,4.645,9.019,10.261v10.854c0,0.541-0.486,1.027-1.026,1.027h-3.078
		c-0.594,0-1.024-0.486-1.024-1.027v-11.07c0-3.455-1.675-5.345-4.482-5.345c-3.401,0-5.724,2.483-5.993,3.24v13.176
		c0,0.703-0.324,1.027-1.242,1.027h-2.809c-0.54,0-1.025-0.486-1.025-1.027V51.766H273.102z"/>
	<path d="M319.486,58.678c2.269,0,4.267,0.646,4.267,0.646c0.054-3.4-0.595-4.751-3.349-4.751c-2.483,0-4.914,0.648-6.048,0.973
		c-0.648,0.162-1.026-0.271-1.188-0.864l-0.432-1.998c-0.162-0.702,0.216-1.08,0.701-1.242c0.379-0.162,3.456-1.242,7.452-1.242
		c6.912,0,7.561,4.212,7.561,9.613v11.502c0,0.539-0.485,1.025-1.025,1.025h-1.512c-0.486,0-0.702-0.217-0.919-0.756l-0.539-1.457
		c-1.188,1.133-3.295,2.754-6.644,2.754c-4.05,0-6.966-2.754-6.966-7.236C310.847,61.703,313.979,58.678,319.486,58.678z
		 M318.839,69.047c2.159,0,4.212-1.619,4.859-2.699v-3.457c-0.323-0.215-1.836-0.863-3.779-0.863c-2.593,0-4.374,1.352-4.374,3.564
		C315.545,67.535,316.841,69.047,318.839,69.047z"/>
	<path d="M352.317,87.514c0,0.596-0.378,1.025-1.135,1.025h-3.023c-0.54,0-1.026-0.484-1.026-1.025V51.766
		c0-0.54,0.486-1.026,1.026-1.026h1.62c0.432,0,0.702,0.216,0.918,0.702l0.54,1.404c0.378-0.378,2.592-2.646,6.588-2.646
		c5.939,0,10.313,5.185,10.313,11.396c0,6.316-4.645,11.285-10.529,11.285c-2.81,0-4.914-1.242-5.292-1.457V87.514L352.317,87.514z
		 M356.961,68.236c3.564,0,6.156-2.971,6.156-6.643c0-3.617-2.269-6.696-5.939-6.696c-3.133,0-4.753,2.484-4.969,3.131v8.643
		C352.209,66.672,354.1,68.236,356.961,68.236z"/>
	<path d="M373.593,35.566c0-0.54,0.486-1.026,1.026-1.026h3.078c0.54,0,1.024,0.486,1.024,1.026v35.749
		c0,0.539-0.484,1.025-1.024,1.025h-3.078c-0.54,0-1.026-0.486-1.026-1.025V35.566z"/>
	<path d="M392.816,58.678c2.269,0,4.267,0.646,4.267,0.646c0.054-3.4-0.595-4.751-3.349-4.751c-2.483,0-4.914,0.648-6.049,0.973
		c-0.647,0.162-1.025-0.271-1.188-0.864l-0.432-1.998c-0.162-0.702,0.216-1.08,0.701-1.242c0.379-0.162,3.456-1.242,7.452-1.242
		c6.912,0,7.561,4.212,7.561,9.613v11.502c0,0.539-0.485,1.025-1.025,1.025h-1.512c-0.486,0-0.702-0.217-0.919-0.756l-0.539-1.457
		c-1.188,1.133-3.295,2.754-6.644,2.754c-4.05,0-6.966-2.754-6.966-7.236C384.177,61.703,387.309,58.678,392.816,58.678z
		 M392.169,69.047c2.159,0,4.212-1.619,4.859-2.699v-3.457c-0.323-0.215-1.836-0.863-3.779-0.863c-2.593,0-4.374,1.352-4.374,3.564
		C388.875,67.535,390.171,69.047,392.169,69.047z"/>
	<path d="M409.988,55.222h-2.269c-0.595,0-1.025-0.486-1.025-1.026v-2.43c0-0.594,0.432-1.026,1.025-1.026h2.269v-5.994
		c0-0.54,0.485-1.026,1.025-1.026l3.078-0.054c0.54,0,0.973,0.486,0.973,1.026v6.048h5.508c0.594,0,1.025,0.433,1.025,1.026v2.43
		c0,0.54-0.433,1.026-1.025,1.026h-5.508v10.692c0,1.836,0.701,2.16,1.728,2.16c1.135,0,2.646-0.648,3.295-0.973
		c0.701-0.324,1.025,0,1.241,0.486l0.973,2.375c0.271,0.594,0.055,1.025-0.485,1.297c-0.54,0.324-3.727,1.619-6.318,1.619
		c-4.266,0-5.508-2.592-5.508-6.426L409.988,55.222L409.988,55.222z"/>
	<path d="M436.502,50.2c5.616,0,9.938,4.212,9.938,9.99c0,0.379-0.056,1.08-0.108,1.459c-0.054,0.539-0.486,0.918-0.972,0.918
		H430.67c0.162,2.916,2.7,5.777,6.21,5.777c1.944,0,3.728-0.863,4.808-1.566c0.646-0.377,1.024-0.594,1.457-0.053l1.513,2.051
		c0.378,0.434,0.54,0.865-0.108,1.404c-1.564,1.352-4.374,2.701-7.992,2.701c-6.533,0-10.854-5.131-10.854-11.342
		C425.702,55.438,430.021,50.2,436.502,50.2z M441.416,59.164c-0.162-2.592-2.322-4.806-4.968-4.806
		c-2.916,0-5.186,2.106-5.509,4.806H441.416z"/>
</g>
</svg>
