<?xml version="1.0" encoding="utf-8"?>
<!-- Generator: Adobe Illustrator 16.0.2, SVG Export Plug-In . SVG Version: 6.00 Build 0)  -->
<!DOCTYPE svg PUBLIC "-//W3C//DTD SVG 1.1//EN" "http://www.w3.org/Graphics/SVG/1.1/DTD/svg11.dtd">
<svg version="1.1" id="Layer_1" xmlns="http://www.w3.org/2000/svg" xmlns:xlink="http://www.w3.org/1999/xlink" x="0px" y="0px"
	 width="28px" height="28px" viewBox="0 0 28 28" enable-background="new 0 0 28 28" xml:space="preserve">
<path fill="#FFFFFF" d="M25.074,7.124c-0.813,0.359-1.685,0.604-2.601,0.713c0.935-0.561,1.652-1.448,1.991-2.506
	c-0.875,0.52-1.845,0.896-2.876,1.099C20.763,5.55,19.586,5,18.283,5c-2.501,0-4.529,2.027-4.529,4.528
	c0,0.355,0.04,0.701,0.117,1.032c-3.764-0.188-7.101-1.991-9.334-4.731C4.146,6.498,3.924,7.275,3.924,8.105
	c0,1.571,0.799,2.958,2.015,3.77c-0.742-0.023-1.441-0.227-2.052-0.566c0,0.02,0,0.038,0,0.058c0,2.193,1.561,4.024,3.633,4.44
	c-0.38,0.104-0.78,0.159-1.193,0.159c-0.292,0-0.575-0.029-0.852-0.082c0.576,1.8,2.248,3.109,4.23,3.146
	c-1.55,1.215-3.503,1.939-5.625,1.939c-0.365,0-0.726-0.021-1.08-0.064c2.004,1.285,4.385,2.035,6.942,2.035
	c8.33,0,12.885-6.901,12.885-12.886c0-0.196-0.004-0.392-0.013-0.586C23.699,8.829,24.467,8.032,25.074,7.124z"/>
</svg>
