<svg width="45" height="32" viewBox="0 0 45 32" xmlns="http://www.w3.org/2000/svg"><title>food</title><g fill="#009639" fill-rule="evenodd"><path d="M22.5 31.4c-7.7 0-14-6.3-14-14s6.3-14 14-14 14 6.3 14 14-6.3 14-14 14zm0-26.6C15.6 4.8 10 10.4 10 17.3s5.6 12.5 12.5 12.5S35 24.2 35 17.3 29.4 4.8 22.5 4.8z"/><path d="M22.5 25.8c-4.7 0-8.5-3.8-8.5-8.5s3.8-8.4 8.5-8.4 8.4 3.8 8.4 8.4c0 4.6-3.8 8.5-8.4 8.5zm0-15.4c-3.8 0-7 3.1-7 6.9 0 3.8 3.1 7 7 7 3.8 0 6.9-3.1 6.9-7s-3.1-6.9-6.9-6.9zM4.9 11.8C1.6 11.8 0 9.3 0 7.9V2.7c0-.4.3-.8.8-.8s.8.3.8.8v5.2c0 .7 1 2.4 3.4 2.4 2.2 0 3.5-1 3.5-2.7V2.7c0-.4.3-.8.8-.8s.8.3.8.8v4.9c-.2 2.5-2.2 4.2-5.2 4.2z"/><path d="M5 30c-.4 0-.8-.3-.8-.8V2.6c0-.4.3-.8.8-.8s.8.3.8.8v26.6c-.1.4-.4.8-.8.8zM40 30c-.4 0-.8-.3-.8-.8V.3l1.4 1.9c.2.2 4.3 6.2 4.3 15.8v.8h-4.2v10.5c0 .3-.3.7-.7.7zm.7-12.7h2.7c-.1-5.3-1.6-9.4-2.7-11.8v11.8z"/></g></svg>