<?xml version="1.0" encoding="UTF-8"?>
<svg width="282px" height="101px" viewBox="0 0 282 101" version="1.1" xmlns="http://www.w3.org/2000/svg" xmlns:xlink="http://www.w3.org/1999/xlink">
    <!-- Generator: Sketch 42 (36781) - http://www.bohemiancoding.com/sketch -->
    <title>Page 1 Copy</title>
    <desc>Created with Sketch.</desc>
    <defs>
        <polygon id="path-1" points="0.0002 0 101.1432 0 101.1432 100.9998 0.0002 100.9998 0.0002 0"></polygon>
        <polygon id="path-3" points="0 101 290.589 101 290.589 0 0 0"></polygon>
    </defs>
    <g id="Page-1" stroke="none" stroke-width="1" fill="none" fill-rule="evenodd">
        <g id="Page-1-Copy">
            <g id="Group-3">
                <mask id="mask-2" fill="white">
                    <use xlink:href="#path-1"></use>
                </mask>
                <g id="Clip-2"></g>
                <path d="M54.8652,98.7598 C53.7882,97.9158 52.7652,96.8648 51.8592,95.5418 C52.0482,95.2138 52.2302,94.8728 52.4072,94.5208 C60.0552,79.2318 64.1802,65.1098 64.3352,53.6828 C64.4622,44.3218 61.8462,36.7858 57.1612,33.0108 C55.8522,31.9578 54.4442,31.2478 52.9992,30.8718 L54.5852,19.9378 L53.1452,19.7288 L51.5652,30.6128 C51.4372,30.5988 51.3082,30.5908 51.1802,30.5818 L51.1802,19.8638 L49.7252,19.8638 L49.7252,30.5938 C49.5942,30.6048 49.4642,30.6278 49.3332,30.6458 L47.7682,19.7598 L46.3262,19.9678 L47.9042,30.9378 C46.5432,31.3278 45.2182,32.0158 43.9832,33.0108 C39.2972,36.7858 36.6812,44.3208 36.8072,53.6828 C36.9622,65.1098 41.0862,79.2318 48.7352,94.5208 C48.9122,94.8728 49.0942,95.2138 49.2822,95.5418 C48.3772,96.8648 47.3552,97.9158 46.2772,98.7598 C21.6002,96.5768 2.1822,75.8058 2.1822,50.5718 C2.1822,23.8908 23.8902,2.1828 50.5722,2.1828 C77.2532,2.1828 98.9612,23.8908 98.9612,50.5718 C98.9612,75.8058 79.5422,96.5778 54.8652,98.7598 M50.5712,93.3108 C32.9462,57.9458 38.9882,39.8388 45.3522,34.7108 C46.9872,33.3938 48.7792,32.7358 50.5722,32.7358 C52.3642,32.7358 54.1572,33.3938 55.7922,34.7108 C62.1552,39.8388 68.1962,57.9468 50.5712,93.3108 M50.5722,-0.0002 C22.6862,-0.0002 0.0002,22.6868 0.0002,50.5718 C0.0002,75.9418 18.7802,97.0018 43.1662,100.5968 C44.4122,100.7808 45.6752,100.9088 46.9492,100.9998 C47.7782,100.4188 48.5832,99.7338 49.3462,98.9298 C49.7672,98.4878 50.1792,98.0158 50.5712,97.4968 C50.9642,98.0158 51.3752,98.4878 51.7962,98.9298 C52.5592,99.7338 53.3642,100.4188 54.1932,100.9998 C55.4682,100.9088 56.7292,100.7808 57.9752,100.5968 C82.3632,97.0028 101.1432,75.9418 101.1432,50.5718 C101.1432,22.6868 78.4582,-0.0002 50.5722,-0.0002" id="Fill-1" fill="#5AA24C" mask="url(#mask-2)"></path>
            </g>
            <mask id="mask-4" fill="white">
                <use xlink:href="#path-3"></use>
            </mask>
            <g id="Clip-4"></g>
            <text id="on-a-plate" mask="url(#mask-4)" font-family="BrandonGrotesque-Medium, Brandon Grotesque" font-size="40" font-weight="400" fill="#5AA24C">
                <tspan x="110.5918" y="82.7002841">on a plate</tspan>
            </text>
            <text id="Something-" mask="url(#mask-4)" font-family="BrandonGrotesque-Medium, Brandon Grotesque" font-size="40" font-weight="400" fill="#5AA24C">
                <tspan x="110.5918" y="44.7002841">Something </tspan>
            </text>
        </g>
    </g>
</svg>