<?xml version="1.0" encoding="UTF-8"?>
<svg width="64px" height="64px" viewBox="0 0 64 64" version="1.1" xmlns="http://www.w3.org/2000/svg" xmlns:xlink="http://www.w3.org/1999/xlink">
    <!-- Generator: Sketch 41.2 (35397) - http://www.bohemiancoding.com/sketch -->
    <title>board</title>
    <desc>Created with Sketch.</desc>
    <defs></defs>
    <g id="Page-1" stroke="none" stroke-width="1" fill="none" fill-rule="evenodd">
        <g id="board" fill="#429345">
            <path d="M2,44 L27.5,44 L14.5,58.7 C13.8,59.5 13.8,60.8 14.7,61.5 C15.1,61.8 15.6,62 16,62 C16.6,62 17.1,61.8 17.5,61.3 L30,47.3 L30,62 C30,63.1 30.9,64 32,64 C33.1,64 34,63.1 34,62 L34,47.3 L46.5,61.4 C46.9,61.8 47.4,62.1 48,62.1 C48.5,62.1 48.9,61.9 49.3,61.6 C50.1,60.9 50.2,59.6 49.5,58.8 L36.5,44 L62,44 C63.1,44 64,43.1 64,42 C64,40.9 63.1,40 62,40 L60,40 L60,0 L4,0 L4,40 L2,40 C0.9,40 0,40.9 0,42 C0,43.1 0.9,44 2,44 Z M56,4 L56,8 L8,8 L8,4 L56,4 Z M8,12 L56,12 L56,40 L8,40 L8,12 Z" id="Shape"></path>
        </g>
    </g>
</svg>