<svg width="33" height="33" viewBox="0 0 33 33" xmlns="http://www.w3.org/2000/svg"><title>rucksack</title><g fill="#009639" fill-rule="evenodd"><path d="M26.6 32.1h-20c-1.5 0-2.8-1.2-2.8-2.8v-16h1.5v16c0 .7.6 1.2 1.2 1.2h20c.7 0 1.2-.6 1.2-1.2v-16h1.5v16c.1 1.6-1.1 2.8-2.6 2.8z"/><path d="M6.6 32.1h-3c-1.5 0-2.8-1.2-2.8-2.8v-8c0-1.5 1.2-2.8 2.8-2.8h1V20h-1c-.7 0-1.2.6-1.2 1.2v8c0 .7.6 1.2 1.2 1.2h3v1.7zM29.5 32.1h-3v-1.5h3c.7 0 1.2-.6 1.2-1.2v-8c0-.7-.6-1.2-1.2-1.2h-1v-1.5h1c1.5 0 2.8 1.2 2.8 2.8v8c0 1.4-1.2 2.6-2.8 2.6zM26.6 16.1h-20c-1.5 0-2.8-1.2-2.8-2.8v-6c0-1.5 1.2-2.8 2.8-2.8h20c1.5 0 2.8 1.2 2.8 2.8v6c-.1 1.6-1.3 2.8-2.8 2.8zm-20-10c-.7 0-1.2.6-1.2 1.2v6c0 .7.6 1.3 1.2 1.3h20c.7 0 1.2-.6 1.2-1.3v-6c0-.7-.6-1.2-1.2-1.2h-20z"/><path d="M21.3 5.4h-1.5c0-1.8-1.5-3.2-3.2-3.2-1.7 0-3.2 1.5-3.2 3.2h-1.5c0-2.6 2.1-4.8 4.8-4.8 2.7 0 4.6 2.1 4.6 4.8zM12.6 24.1h-4c-.4 0-.8-.3-.8-.8v-4c0-.4.3-.8.8-.8h4c.4 0 .8.3.8.8v4c-.1.5-.4.8-.8.8zm-3.3-1.5h2.5v-2.5H9.3v2.5zM24.6 24.1h-4c-.4 0-.8-.3-.8-.8v-4c0-.4.3-.8.8-.8h4c.4 0 .8.3.8.8v4c-.1.5-.4.8-.8.8zm-3.3-1.5h2.5v-2.5h-2.5v2.5z"/><path d="M10.6 20.1c-.4 0-.8-.3-.8-.8V5.4c0-.4.3-.8.8-.8s.8.3.8.8v13.9c-.1.5-.4.8-.8.8zM10.6 26.1c-.4 0-.8-.3-.8-.8v-2c0-.4.3-.8.8-.8s.8.3.8.8v2c-.1.5-.4.8-.8.8zM22.6 20.1c-.4 0-.8-.3-.8-.8V5.4c0-.4.3-.8.8-.8s.8.3.8.8v13.9c-.1.5-.4.8-.8.8zM22.6 26.1c-.4 0-.8-.3-.8-.8v-2c0-.4.3-.8.8-.8s.8.3.8.8v2c-.1.5-.4.8-.8.8z"/></g></svg>