<?xml version="1.0" encoding="UTF-8"?>
<svg width="282px" height="101px" viewBox="0 0 282 101" version="1.1" xmlns="http://www.w3.org/2000/svg" xmlns:xlink="http://www.w3.org/1999/xlink">
    <!-- Generator: Sketch 42 (36781) - http://www.bohemiancoding.com/sketch -->
    <title>logo_white</title>
    <desc>Created with Sketch.</desc>
    <defs>
        <polygon id="path-1" points="0.0002 0 101.1432 0 101.1432 100.9998 0.0002 100.9998"></polygon>
    </defs>
    <g id="Page-1" stroke="none" stroke-width="1" fill="none" fill-rule="evenodd">
        <g id="logo_white">
            <g id="Page-1">
                <g id="Group-3">
                    <g id="Fill-1-Clipped">
                        <mask id="mask-2" fill="white">
                            <use xlink:href="#path-1"></use>
                        </mask>
                        <g id="path-1"></g>
                        <path d="M54.8652,98.7598 C53.7882,97.9158 52.7652,96.8648 51.8592,95.5418 C52.0482,95.2138 52.2302,94.8728 52.4072,94.5208 C60.0552,79.2318 64.1802,65.1098 64.3352,53.6828 C64.4622,44.3218 61.8462,36.7858 57.1612,33.0108 C55.8522,31.9578 54.4442,31.2478 52.9992,30.8718 L54.5852,19.9378 L53.1452,19.7288 L51.5652,30.6128 C51.4372,30.5988 51.3082,30.5908 51.1802,30.5818 L51.1802,19.8638 L49.7252,19.8638 L49.7252,30.5938 C49.5942,30.6048 49.4642,30.6278 49.3332,30.6458 L47.7682,19.7598 L46.3262,19.9678 L47.9042,30.9378 C46.5432,31.3278 45.2182,32.0158 43.9832,33.0108 C39.2972,36.7858 36.6812,44.3208 36.8072,53.6828 C36.9622,65.1098 41.0862,79.2318 48.7352,94.5208 C48.9122,94.8728 49.0942,95.2138 49.2822,95.5418 C48.3772,96.8648 47.3552,97.9158 46.2772,98.7598 C21.6002,96.5768 2.1822,75.8058 2.1822,50.5718 C2.1822,23.8908 23.8902,2.1828 50.5722,2.1828 C77.2532,2.1828 98.9612,23.8908 98.9612,50.5718 C98.9612,75.8058 79.5422,96.5778 54.8652,98.7598 M50.5712,93.3108 C32.9462,57.9458 38.9882,39.8388 45.3522,34.7108 C46.9872,33.3938 48.7792,32.7358 50.5722,32.7358 C52.3642,32.7358 54.1572,33.3938 55.7922,34.7108 C62.1552,39.8388 68.1962,57.9468 50.5712,93.3108 M50.5722,-0.0002 C22.6862,-0.0002 0.0002,22.6868 0.0002,50.5718 C0.0002,75.9418 18.7802,97.0018 43.1662,100.5968 C44.4122,100.7808 45.6752,100.9088 46.9492,100.9998 C47.7782,100.4188 48.5832,99.7338 49.3462,98.9298 C49.7672,98.4878 50.1792,98.0158 50.5712,97.4968 C50.9642,98.0158 51.3752,98.4878 51.7962,98.9298 C52.5592,99.7338 53.3642,100.4188 54.1932,100.9998 C55.4682,100.9088 56.7292,100.7808 57.9752,100.5968 C82.3632,97.0028 101.1432,75.9418 101.1432,50.5718 C101.1432,22.6868 78.4582,-0.0002 50.5722,-0.0002" id="Fill-1" fill="#FFFFFF" fill-rule="nonzero" mask="url(#mask-2)"></path>
                    </g>
                </g>
                <g id="on-a-plate-Clipped" fill="#FFFFFF">
                    <path d="M111.9918,74.6602841 C111.9918,70.1402841 115.5918,66.3002841 120.0718,66.3002841 C124.5518,66.3002841 128.1518,70.1402841 128.1518,74.6602841 C128.1518,79.2602841 124.5518,83.1002841 120.0718,83.1002841 C115.5918,83.1002841 111.9918,79.2602841 111.9918,74.6602841 Z M115.5518,74.6602841 C115.5518,77.4202841 117.5518,79.6602841 120.0718,79.6602841 C122.5918,79.6602841 124.5918,77.4202841 124.5918,74.6602841 C124.5918,71.9802841 122.5918,69.7802841 120.0718,69.7802841 C117.5518,69.7802841 115.5518,71.9802841 115.5518,74.6602841 Z M132.1518,81.9402841 C132.1518,82.3402841 132.5118,82.7002841 132.9118,82.7002841 L134.9918,82.7002841 C135.6718,82.7002841 135.9118,82.4602841 135.9118,81.9402841 L135.9118,72.1802841 C136.1118,71.6202841 137.8318,69.7802841 140.3518,69.7802841 C142.4318,69.7802841 143.6718,71.1802841 143.6718,73.7402841 L143.6718,81.9402841 C143.6718,82.3402841 143.9918,82.7002841 144.4318,82.7002841 L146.7118,82.7002841 C147.1118,82.7002841 147.4718,82.3402841 147.4718,81.9402841 L147.4718,73.9002841 C147.4718,69.7402841 145.6718,66.3002841 140.7918,66.3002841 C137.5918,66.3002841 135.4718,68.2202841 135.1918,68.5402841 L134.7118,67.1802841 C134.6318,66.9002841 134.3918,66.7002841 134.0718,66.7002841 L132.9118,66.7002841 C132.5118,66.7002841 132.1518,67.0602841 132.1518,67.4602841 L132.1518,81.9402841 Z M160.1118,77.7402841 C160.1118,74.8202841 162.4318,72.5802841 166.5118,72.5802841 C168.1918,72.5802841 169.6718,73.0602841 169.6718,73.0602841 C169.7118,70.5402841 169.2318,69.5402841 167.1918,69.5402841 C165.3518,69.5402841 163.5518,70.0202841 162.7118,70.2602841 C162.2318,70.3802841 161.9518,70.0602841 161.8318,69.6202841 L161.5118,68.1402841 C161.3918,67.6202841 161.6718,67.3402841 162.0318,67.2202841 C162.3118,67.1002841 164.5918,66.3002841 167.5518,66.3002841 C172.6718,66.3002841 173.1518,69.4202841 173.1518,73.4202841 L173.1518,81.9402841 C173.1518,82.3402841 172.7918,82.7002841 172.3918,82.7002841 L171.2718,82.7002841 C170.9118,82.7002841 170.7518,82.5402841 170.5918,82.1402841 L170.1918,81.0602841 C169.3118,81.9002841 167.7518,83.1002841 165.2718,83.1002841 C162.2718,83.1002841 160.1118,81.0602841 160.1118,77.7402841 Z M163.5918,77.7002841 C163.5918,79.1402841 164.5518,80.2602841 166.0318,80.2602841 C167.6318,80.2602841 169.1518,79.0602841 169.6318,78.2602841 L169.6318,75.7002841 C169.3918,75.5402841 168.2718,75.0602841 166.8318,75.0602841 C164.9118,75.0602841 163.5918,76.0602841 163.5918,77.7002841 Z M190.8318,82.0202841 L190.8318,93.9402841 C190.8318,94.3802841 190.5518,94.7002841 189.9918,94.7002841 L187.7518,94.7002841 C187.3518,94.7002841 186.9918,94.3402841 186.9918,93.9402841 L186.9918,67.4602841 C186.9918,67.0602841 187.3518,66.7002841 187.7518,66.7002841 L188.9518,66.7002841 C189.2718,66.7002841 189.4718,66.8602841 189.6318,67.2202841 L190.0318,68.2602841 C190.3118,67.9802841 191.9518,66.3002841 194.9118,66.3002841 C199.3118,66.3002841 202.5518,70.1402841 202.5518,74.7402841 C202.5518,79.4202841 199.1118,83.1002841 194.7518,83.1002841 C192.6718,83.1002841 191.1118,82.1802841 190.8318,82.0202841 Z M190.7518,78.5002841 C190.7518,78.5002841 192.1518,79.6602841 194.2718,79.6602841 C196.9118,79.6602841 198.8318,77.4602841 198.8318,74.7402841 C198.8318,72.0602841 197.1518,69.7802841 194.4318,69.7802841 C192.1118,69.7802841 190.9118,71.6202841 190.7518,72.1002841 L190.7518,78.5002841 Z M206.5918,81.9402841 C206.5918,82.3402841 206.9518,82.7002841 207.3518,82.7002841 L209.6318,82.7002841 C210.0318,82.7002841 210.3918,82.3402841 210.3918,81.9402841 L210.3918,55.4602841 C210.3918,55.0602841 210.0318,54.7002841 209.6318,54.7002841 L207.3518,54.7002841 C206.9518,54.7002841 206.5918,55.0602841 206.5918,55.4602841 L206.5918,81.9402841 Z M214.4318,77.7402841 C214.4318,74.8202841 216.7518,72.5802841 220.8318,72.5802841 C222.5118,72.5802841 223.9918,73.0602841 223.9918,73.0602841 C224.0318,70.5402841 223.5518,69.5402841 221.5118,69.5402841 C219.6718,69.5402841 217.8718,70.0202841 217.0318,70.2602841 C216.5518,70.3802841 216.2718,70.0602841 216.1518,69.6202841 L215.8318,68.1402841 C215.7118,67.6202841 215.9918,67.3402841 216.3518,67.2202841 C216.6318,67.1002841 218.9118,66.3002841 221.8718,66.3002841 C226.9918,66.3002841 227.4718,69.4202841 227.4718,73.4202841 L227.4718,81.9402841 C227.4718,82.3402841 227.1118,82.7002841 226.7118,82.7002841 L225.5918,82.7002841 C225.2318,82.7002841 225.0718,82.5402841 224.9118,82.1402841 L224.5118,81.0602841 C223.6318,81.9002841 222.0718,83.1002841 219.5918,83.1002841 C216.5918,83.1002841 214.4318,81.0602841 214.4318,77.7402841 Z M217.9118,77.7002841 C217.9118,79.1402841 218.8718,80.2602841 220.3518,80.2602841 C221.9518,80.2602841 223.4718,79.0602841 223.9518,78.2602841 L223.9518,75.7002841 C223.7118,75.5402841 222.5918,75.0602841 221.1518,75.0602841 C219.2318,75.0602841 217.9118,76.0602841 217.9118,77.7002841 Z M233.5518,78.3402841 C233.5518,81.1802841 234.4718,83.1002841 237.6318,83.1002841 C239.5518,83.1002841 241.9118,82.1402841 242.3118,81.9002841 C242.7118,81.7002841 242.8718,81.3802841 242.6718,80.9402841 L241.9518,79.1802841 C241.7918,78.8202841 241.5518,78.5802841 241.0318,78.8202841 C240.5518,79.0602841 239.4318,79.5402841 238.5918,79.5402841 C237.8318,79.5402841 237.3118,79.3002841 237.3118,77.9402841 L237.3118,70.0202841 L241.3918,70.0202841 C241.8318,70.0202841 242.1518,69.6602841 242.1518,69.2602841 L242.1518,67.4602841 C242.1518,67.0202841 241.8318,66.7002841 241.3918,66.7002841 L237.3118,66.7002841 L237.3118,62.2202841 C237.3118,61.8202841 236.9918,61.4602841 236.5918,61.4602841 L234.3118,61.5002841 C233.9118,61.5002841 233.5518,61.8602841 233.5518,62.2602841 L233.5518,66.7002841 L231.8718,66.7002841 C231.4318,66.7002841 231.1118,67.0202841 231.1118,67.4602841 L231.1118,69.2602841 C231.1118,69.6602841 231.4318,70.0202841 231.8718,70.0202841 L233.5518,70.0202841 L233.5518,78.3402841 Z M245.1918,74.7002841 C245.1918,70.1802841 248.3918,66.3002841 253.1918,66.3002841 C257.3518,66.3002841 260.5518,69.4202841 260.5518,73.7002841 C260.5518,73.9802841 260.5118,74.5002841 260.4718,74.7802841 C260.4318,75.1802841 260.1118,75.4602841 259.7518,75.4602841 L248.8718,75.4602841 C248.9918,77.6202841 250.8718,79.7402841 253.4718,79.7402841 C254.9118,79.7402841 256.2318,79.1002841 257.0318,78.5802841 C257.5118,78.3002841 257.7918,78.1402841 258.1118,78.5402841 L259.2318,80.0602841 C259.5118,80.3802841 259.6318,80.7002841 259.1518,81.1002841 C257.9918,82.1002841 255.9118,83.1002841 253.2318,83.1002841 C248.3918,83.1002841 245.1918,79.3002841 245.1918,74.7002841 Z M249.0718,72.9402841 L256.8318,72.9402841 C256.7118,71.0202841 255.1118,69.3802841 253.1518,69.3802841 C250.9918,69.3802841 249.3118,70.9402841 249.0718,72.9402841 Z" id="on-a-plate"></path>
                </g>
                <g id="Something--Clipped" fill="#FFFFFF">
                    <path d="M112.9118,41.9402841 C113.5518,42.5402841 116.6318,45.1002841 121.5118,45.1002841 C126.7118,45.1002841 130.4318,41.7002841 130.4318,37.5402841 C130.4318,32.6602841 126.4718,30.4602841 121.8318,28.5802841 C118.5118,27.2202841 116.7518,25.8202841 116.7518,23.5402841 C116.7518,22.0602841 117.9118,19.9402841 121.2718,19.9402841 C123.5918,19.9402841 126.3918,21.7802841 126.6718,21.9402841 C127.2318,22.3002841 127.7518,22.0602841 128.0718,21.5402841 C128.3918,21.0602841 128.7518,20.5002841 129.0718,20.0202841 C129.4718,19.4202841 129.1518,18.8602841 128.8318,18.6602841 C128.4318,18.3802841 125.4318,16.3002841 121.4318,16.3002841 C115.0718,16.3002841 112.6718,20.5802841 112.6718,23.7002841 C112.6718,28.3402841 115.8718,30.4602841 119.9518,32.1802841 C123.9118,33.8202841 125.9918,35.3402841 125.9918,37.7402841 C125.9918,39.7802841 124.2318,41.4602841 121.4718,41.4602841 C118.3918,41.4602841 115.3118,38.9002841 115.0718,38.7002841 C114.6318,38.3402841 114.0718,38.5002841 113.7118,39.0202841 C113.3518,39.5402841 113.0318,40.1402841 112.6718,40.6602841 C112.2718,41.3402841 112.5518,41.6202841 112.9118,41.9402841 Z M133.4718,36.6602841 C133.4718,32.1402841 137.0718,28.3002841 141.5518,28.3002841 C146.0318,28.3002841 149.6318,32.1402841 149.6318,36.6602841 C149.6318,41.2602841 146.0318,45.1002841 141.5518,45.1002841 C137.0718,45.1002841 133.4718,41.2602841 133.4718,36.6602841 Z M137.0318,36.6602841 C137.0318,39.4202841 139.0318,41.6602841 141.5518,41.6602841 C144.0718,41.6602841 146.0718,39.4202841 146.0718,36.6602841 C146.0718,33.9802841 144.0718,31.7802841 141.5518,31.7802841 C139.0318,31.7802841 137.0318,33.9802841 137.0318,36.6602841 Z M153.6318,43.9402841 C153.6318,44.3402841 153.9918,44.7002841 154.3918,44.7002841 L156.6318,44.7002841 C157.0318,44.7002841 157.3918,44.3402841 157.3918,43.9402841 L157.3918,34.1802841 C157.5918,33.6602841 158.9518,31.7802841 161.3518,31.7802841 C163.5918,31.7802841 164.7518,33.1802841 164.7518,35.7402841 L164.7518,43.9402841 C164.7518,44.3402841 165.0718,44.7002841 165.5118,44.7002841 L167.6318,44.7002841 C168.0318,44.7002841 168.3918,44.3402841 168.3918,43.9402841 L168.3918,35.6602841 C168.3918,34.8602841 168.3518,34.1002841 168.2718,33.7402841 C168.5518,33.5002841 169.9518,31.7802841 172.3918,31.7802841 C174.5518,31.7802841 175.7118,33.2202841 175.7118,35.7402841 L175.7118,43.9402841 C175.7118,44.3402841 176.0318,44.7002841 176.4718,44.7002841 L178.7118,44.7002841 C179.1518,44.7002841 179.4718,44.3402841 179.4718,43.9402841 L179.4718,35.9002841 C179.4718,31.7402841 177.7518,28.3002841 172.8718,28.3002841 C169.8318,28.3002841 167.5118,30.4202841 167.0718,30.8602841 C165.9118,29.2202841 164.2318,28.3002841 161.9118,28.3002841 C158.8318,28.3002841 156.9918,30.1802841 156.6318,30.5402841 L156.1918,29.1802841 C156.0718,28.9002841 155.8718,28.7002841 155.5118,28.7002841 L154.3918,28.7002841 C153.9918,28.7002841 153.6318,29.0602841 153.6318,29.4602841 L153.6318,43.9402841 Z M183.3118,36.7002841 C183.3118,32.1802841 186.5118,28.3002841 191.3118,28.3002841 C195.4718,28.3002841 198.6718,31.4202841 198.6718,35.7002841 C198.6718,35.9802841 198.6318,36.5002841 198.5918,36.7802841 C198.5518,37.1802841 198.2318,37.4602841 197.8718,37.4602841 L186.9918,37.4602841 C187.1118,39.6202841 188.9918,41.7402841 191.5918,41.7402841 C193.0318,41.7402841 194.3518,41.1002841 195.1518,40.5802841 C195.6318,40.3002841 195.9118,40.1402841 196.2318,40.5402841 L197.3518,42.0602841 C197.6318,42.3802841 197.7518,42.7002841 197.2718,43.1002841 C196.1118,44.1002841 194.0318,45.1002841 191.3518,45.1002841 C186.5118,45.1002841 183.3118,41.3002841 183.3118,36.7002841 Z M187.1918,34.9402841 L194.9518,34.9402841 C194.8318,33.0202841 193.2318,31.3802841 191.2718,31.3802841 C189.1118,31.3802841 187.4318,32.9402841 187.1918,34.9402841 Z M203.5518,40.3402841 C203.5518,43.1802841 204.4718,45.1002841 207.6318,45.1002841 C209.5518,45.1002841 211.9118,44.1402841 212.3118,43.9002841 C212.7118,43.7002841 212.8718,43.3802841 212.6718,42.9402841 L211.9518,41.1802841 C211.7918,40.8202841 211.5518,40.5802841 211.0318,40.8202841 C210.5518,41.0602841 209.4318,41.5402841 208.5918,41.5402841 C207.8318,41.5402841 207.3118,41.3002841 207.3118,39.9402841 L207.3118,32.0202841 L211.3918,32.0202841 C211.8318,32.0202841 212.1518,31.6602841 212.1518,31.2602841 L212.1518,29.4602841 C212.1518,29.0202841 211.8318,28.7002841 211.3918,28.7002841 L207.3118,28.7002841 L207.3118,24.2202841 C207.3118,23.8202841 206.9918,23.4602841 206.5918,23.4602841 L204.3118,23.5002841 C203.9118,23.5002841 203.5518,23.8602841 203.5518,24.2602841 L203.5518,28.7002841 L201.8718,28.7002841 C201.4318,28.7002841 201.1118,29.0202841 201.1118,29.4602841 L201.1118,31.2602841 C201.1118,31.6602841 201.4318,32.0202841 201.8718,32.0202841 L203.5518,32.0202841 L203.5518,40.3402841 Z M216.3518,43.9402841 C216.3518,44.3402841 216.7118,44.7002841 217.1118,44.7002841 L219.3918,44.7002841 C219.9118,44.7002841 220.1918,44.3802841 220.1918,43.9402841 L220.1918,34.3002841 C220.3918,33.6202841 222.0718,31.7802841 224.5118,31.7802841 C226.5918,31.7802841 227.9118,33.2202841 227.9118,35.8202841 L227.9118,43.9402841 C227.9118,44.3402841 228.2318,44.7002841 228.6718,44.7002841 L230.9118,44.7002841 C231.3118,44.7002841 231.6718,44.3402841 231.6718,43.9402841 L231.6718,35.9002841 C231.6718,31.5402841 229.5118,28.3002841 224.9918,28.3002841 C222.4318,28.3002841 220.5918,29.7402841 220.1918,30.0202841 L220.1918,17.4602841 C220.1918,17.0602841 219.8318,16.7002841 219.4318,16.7002841 L217.1118,16.7002841 C216.7118,16.7002841 216.3518,17.0602841 216.3518,17.4602841 L216.3518,43.9402841 Z M238.5118,22.1802841 C239.8318,22.1802841 240.8718,21.1402841 240.8718,19.8602841 C240.8718,18.5402841 239.8318,17.5002841 238.5118,17.5002841 C237.2318,17.5002841 236.2318,18.5402841 236.2318,19.8602841 C236.2318,21.1402841 237.2318,22.1802841 238.5118,22.1802841 Z M236.6718,43.9402841 C236.6718,44.3402841 237.0318,44.7002841 237.4318,44.7002841 L239.7118,44.7002841 C240.1118,44.7002841 240.4718,44.3402841 240.4718,43.9402841 L240.4718,29.4602841 C240.4718,29.0602841 240.1118,28.7002841 239.7118,28.7002841 L237.4318,28.7002841 C237.0318,28.7002841 236.6718,29.0602841 236.6718,29.4602841 L236.6718,43.9402841 Z M245.6718,43.9402841 C245.6718,44.3402841 246.0318,44.7002841 246.4318,44.7002841 L248.5118,44.7002841 C249.1918,44.7002841 249.4318,44.4602841 249.4318,43.9402841 L249.4318,34.1802841 C249.6318,33.6202841 251.3518,31.7802841 253.8718,31.7802841 C255.9518,31.7802841 257.1918,33.1802841 257.1918,35.7402841 L257.1918,43.9402841 C257.1918,44.3402841 257.5118,44.7002841 257.9518,44.7002841 L260.2318,44.7002841 C260.6318,44.7002841 260.9918,44.3402841 260.9918,43.9402841 L260.9918,35.9002841 C260.9918,31.7402841 259.1918,28.3002841 254.3118,28.3002841 C251.1118,28.3002841 248.9918,30.2202841 248.7118,30.5402841 L248.2318,29.1802841 C248.1518,28.9002841 247.9118,28.7002841 247.5918,28.7002841 L246.4318,28.7002841 C246.0318,28.7002841 245.6718,29.0602841 245.6718,29.4602841 L245.6718,43.9402841 Z M264.3918,43.7402841 C264.3918,40.6602841 267.2318,39.1802841 267.2318,39.1802841 C267.2318,39.1802841 265.9918,37.7002841 265.9918,35.3002841 C265.9918,31.5802841 268.7918,28.3002841 272.8718,28.3002841 L279.8718,28.3002841 C280.3118,28.3002841 280.6318,28.6202841 280.6318,29.0602841 L280.6318,30.0602841 C280.6318,30.3402841 280.4718,30.7002841 280.1918,30.7402841 L277.9918,31.3402841 C277.9918,31.3402841 279.7118,32.6202841 279.7118,35.6202841 C279.7118,39.0202841 277.0718,42.1402841 272.9118,42.1402841 C270.8718,42.1402841 269.7518,41.5002841 269.4318,41.5002841 C269.1518,41.5002841 267.7918,42.1802841 267.7918,43.4602841 C267.7918,44.3802841 268.5118,45.1002841 269.7118,45.1002841 L275.1518,45.1002841 C278.6318,45.1002841 281.4318,46.9802841 281.4318,50.4602841 C281.4318,53.9802841 278.2318,57.1002841 272.9118,57.1002841 C267.2718,57.1002841 264.9918,54.2202841 264.9918,51.6202841 C264.9918,49.2202841 266.9518,48.1002841 267.3518,47.8602841 L267.3518,47.7402841 C266.5118,47.5002841 264.3918,46.4202841 264.3918,43.7402841 Z M272.9518,39.0602841 C274.9518,39.0602841 276.3118,37.5402841 276.3118,35.3802841 C276.3118,33.2202841 274.9518,31.7002841 272.9518,31.7002841 C270.9118,31.7002841 269.4318,33.2202841 269.4318,35.3802841 C269.4318,37.5402841 270.9118,39.0602841 272.9518,39.0602841 Z M268.7118,50.9802841 C268.7118,52.6202841 270.4318,53.8202841 272.8718,53.8202841 C275.3118,53.8202841 277.4318,52.5802841 277.4318,50.6602841 C277.4318,50.0202841 277.0318,48.3802841 274.4318,48.3802841 C273.2718,48.3802841 272.0718,48.3802841 270.9118,48.4602841 C270.6718,48.5402841 268.7118,49.1802841 268.7118,50.9802841 Z" id="Something"></path>
                </g>
            </g>
        </g>
    </g>
</svg>