<svg width="52" height="31" viewBox="0 0 52 31" xmlns="http://www.w3.org/2000/svg"><title>bike</title><g fill="#009639" fill-rule="evenodd"><path d="M9.3 11.8C4.2 11.8.1 15.9.1 21s4.1 9.2 9.2 9.2 9.2-4.1 9.2-9.2-4.1-9.2-9.2-9.2zm0 16.7c-4.2 0-7.5-3.4-7.5-7.5s3.4-7.5 7.5-7.5 7.5 3.4 7.5 7.5-3.3 7.5-7.5 7.5zM42.8 11.8c-5.1 0-9.2 4.1-9.2 9.2s4.1 9.2 9.2 9.2S52 26.1 52 21s-4.1-9.2-9.2-9.2zm0 16.7c-4.2 0-7.5-3.4-7.5-7.5s3.4-7.5 7.5-7.5 7.5 3.4 7.5 7.5-3.4 7.5-7.5 7.5z"/><path d="M26.1 21.8H9.3c-.3 0-.5-.1-.7-.4-.2-.2-.2-.5-.1-.8l5-13.4c.1-.3.4-.5.8-.5h22.5c.3 0 .6.2.8.5.1.3.1.6-.1.9L26.8 21.5c-.2.2-.4.3-.7.3zm-15.6-1.6h15.2L35 8.5H14.9l-4.4 11.7z"/><path d="M13.704 8.164l1.273-1.126 11.858 13.41-1.274 1.127zM17.7 3.4H11c-.5 0-.8-.4-.8-.8 0-.5.4-.8.8-.8h6.7c.5 0 .8.4.8.8 0 .5-.3.8-.8.8zM42.8 21.8c-.4 0-.7-.2-.8-.6L35.5 1.7h-6.1c-.5 0-.8-.4-.8-.8s.4-.8.8-.8h6.7c.4 0 .7.2.8.6l6.7 20.1c.1.4-.1.9-.5 1.1-.1-.1-.2-.1-.3-.1z"/></g></svg>